<?xml version="1.0" encoding="UTF-8" standalone="no"?><svg xmlns="http://www.w3.org/2000/svg" xmlns:xlink="http://www.w3.org/1999/xlink" contentStyleType="text/css" height="542px" preserveAspectRatio="none" style="width:1222px;height:542px;background:#FFFFFF;" version="1.1" viewBox="0 0 1222 542" width="1222px" zoomAndPan="magnify"><defs/><g><rect fill="none" height="20.9531" style="stroke:none;stroke-width:1.0;" width="1189" x="15" y="12.7451"/><ellipse cx="250" cy="48.6982" fill="#222222" rx="10" ry="10" style="stroke:#222222;stroke-width:1.0;"/><path d="M22.5,83.1162 L22.5,108.249 A0,0 0 0 0 22.5,108.249 L155.5,108.249 A0,0 0 0 0 155.5,108.249 L155.5,101.1162 L175.5,95.6826 L155.5,93.1162 L155.5,93.1162 L145.5,83.1162 L22.5,83.1162 A0,0 0 0 0 22.5,83.1162 " fill="#FEFFDD" style="stroke:#181818;stroke-width:0.5;"/><path d="M145.5,83.1162 L145.5,93.1162 L155.5,93.1162 L145.5,83.1162 " fill="#FEFFDD" style="stroke:#181818;stroke-width:0.5;"/><text fill="#000000" font-family="sans-serif" font-size="13" lengthAdjust="spacing" textLength="112" x="28.5" y="100.1831">track authenticity</text><rect fill="#F1F1F1" height="33.9688" rx="12.5" ry="12.5" style="stroke:#181818;stroke-width:0.5;" width="149" x="175.5" y="78.6982"/><text fill="#000000" font-family="sans-serif" font-size="12" lengthAdjust="spacing" textLength="129" x="185.5" y="99.8369">harvest coffee beans</text><path d="M20,137.085 L20,162.2178 A0,0 0 0 0 20,162.2178 L153,162.2178 A0,0 0 0 0 153,162.2178 L153,155.085 L173,149.6514 L153,147.085 L153,147.085 L143,137.085 L20,137.085 A0,0 0 0 0 20,137.085 " fill="#FEFFDD" style="stroke:#181818;stroke-width:0.5;"/><path d="M143,137.085 L143,147.085 L153,147.085 L143,137.085 " fill="#FEFFDD" style="stroke:#181818;stroke-width:0.5;"/><text fill="#000000" font-family="sans-serif" font-size="13" lengthAdjust="spacing" textLength="112" x="26" y="154.1519">track authenticity</text><rect fill="#F1F1F1" height="33.9688" rx="12.5" ry="12.5" style="stroke:#181818;stroke-width:0.5;" width="154" x="173" y="132.667"/><text fill="#000000" font-family="sans-serif" font-size="12" lengthAdjust="spacing" textLength="134" x="183" y="153.8057">process coffee beans</text><path d="M24.5,191.0537 L24.5,216.1865 A0,0 0 0 0 24.5,216.1865 L157.5,216.1865 A0,0 0 0 0 157.5,216.1865 L157.5,209.0537 L177.5,203.6201 L157.5,201.0537 L157.5,201.0537 L147.5,191.0537 L24.5,191.0537 A0,0 0 0 0 24.5,191.0537 " fill="#FEFFDD" style="stroke:#181818;stroke-width:0.5;"/><path d="M147.5,191.0537 L147.5,201.0537 L157.5,201.0537 L147.5,191.0537 " fill="#FEFFDD" style="stroke:#181818;stroke-width:0.5;"/><text fill="#000000" font-family="sans-serif" font-size="13" lengthAdjust="spacing" textLength="112" x="30.5" y="208.1206">track authenticity</text><rect fill="#F1F1F1" height="33.9688" rx="12.5" ry="12.5" style="stroke:#181818;stroke-width:0.5;" width="145" x="177.5" y="186.6357"/><text fill="#000000" font-family="sans-serif" font-size="12" lengthAdjust="spacing" textLength="125" x="187.5" y="207.7744">pack coffee palettes</text><path d="M27.5,245.0225 L27.5,270.1553 A0,0 0 0 0 27.5,270.1553 L160.5,270.1553 A0,0 0 0 0 160.5,270.1553 L160.5,263.0225 L180.5,257.5889 L160.5,255.0225 L160.5,255.0225 L150.5,245.0225 L27.5,245.0225 A0,0 0 0 0 27.5,245.0225 " fill="#FEFFDD" style="stroke:#181818;stroke-width:0.5;"/><path d="M150.5,245.0225 L150.5,255.0225 L160.5,255.0225 L150.5,245.0225 " fill="#FEFFDD" style="stroke:#181818;stroke-width:0.5;"/><text fill="#000000" font-family="sans-serif" font-size="13" lengthAdjust="spacing" textLength="112" x="33.5" y="262.0894">track authenticity</text><rect fill="#F1F1F1" height="33.9688" rx="12.5" ry="12.5" style="stroke:#181818;stroke-width:0.5;" width="139" x="180.5" y="240.6045"/><text fill="#000000" font-family="sans-serif" font-size="12" lengthAdjust="spacing" textLength="119" x="190.5" y="261.7432">add coffee palettes</text><path d="M26.5,352.96 L26.5,378.0928 A0,0 0 0 0 26.5,378.0928 L159.5,378.0928 A0,0 0 0 0 159.5,378.0928 L159.5,370.96 L179.5,365.5264 L159.5,362.96 L159.5,362.96 L149.5,352.96 L26.5,352.96 A0,0 0 0 0 26.5,352.96 " fill="#FEFFDD" style="stroke:#181818;stroke-width:0.5;"/><path d="M149.5,352.96 L149.5,362.96 L159.5,362.96 L149.5,352.96 " fill="#FEFFDD" style="stroke:#181818;stroke-width:0.5;"/><text fill="#000000" font-family="sans-serif" font-size="13" lengthAdjust="spacing" textLength="112" x="32.5" y="370.0269">track authenticity</text><rect fill="#F1F1F1" height="33.9688" rx="12.5" ry="12.5" style="stroke:#181818;stroke-width:0.5;" width="141" x="179.5" y="348.542"/><text fill="#000000" font-family="sans-serif" font-size="12" lengthAdjust="spacing" textLength="121" x="189.5" y="369.6807">ship coffee palettes</text><line style="stroke:#000000;stroke-width:1.5;" x1="15" x2="15" y1="12.7451" y2="530.4482"/><path d="M336,298.9912 L336,324.124 A0,0 0 0 0 336,324.124 L469,324.124 A0,0 0 0 0 469,324.124 L469,316.9912 L489,311.5576 L469,308.9912 L469,308.9912 L459,298.9912 L336,298.9912 A0,0 0 0 0 336,298.9912 " fill="#FEFFDD" style="stroke:#181818;stroke-width:0.5;"/><path d="M459,298.9912 L459,308.9912 L469,308.9912 L459,298.9912 " fill="#FEFFDD" style="stroke:#181818;stroke-width:0.5;"/><text fill="#000000" font-family="sans-serif" font-size="13" lengthAdjust="spacing" textLength="112" x="342" y="316.0581">track authenticity</text><rect fill="#F1F1F1" height="33.9688" rx="12.5" ry="12.5" style="stroke:#181818;stroke-width:0.5;" width="138" x="489" y="294.5732"/><text fill="#000000" font-family="sans-serif" font-size="12" lengthAdjust="spacing" textLength="118" x="499" y="315.7119">buy coffee palettes</text><line style="stroke:#000000;stroke-width:1.5;" x1="331" x2="331" y1="12.7451" y2="530.4482"/><path d="M636,406.9287 L636,432.0615 A0,0 0 0 0 636,432.0615 L769,432.0615 A0,0 0 0 0 769,432.0615 L769,424.9287 L789,419.4951 L769,416.9287 L769,416.9287 L759,406.9287 L636,406.9287 A0,0 0 0 0 636,406.9287 " fill="#FEFFDD" style="stroke:#181818;stroke-width:0.5;"/><path d="M759,406.9287 L759,416.9287 L769,416.9287 L759,406.9287 " fill="#FEFFDD" style="stroke:#181818;stroke-width:0.5;"/><text fill="#000000" font-family="sans-serif" font-size="13" lengthAdjust="spacing" textLength="112" x="642" y="423.9956">track authenticity</text><rect fill="#F1F1F1" height="33.9688" rx="12.5" ry="12.5" style="stroke:#181818;stroke-width:0.5;" width="162" x="789" y="402.5107"/><text fill="#000000" font-family="sans-serif" font-size="12" lengthAdjust="spacing" textLength="142" x="799" y="423.6494">receive coffee palettes</text><line style="stroke:#000000;stroke-width:1.5;" x1="631" x2="631" y1="12.7451" y2="530.4482"/><path d="M960,460.8975 L960,486.0303 A0,0 0 0 0 960,486.0303 L1093,486.0303 A0,0 0 0 0 1093,486.0303 L1093,478.8975 L1113,473.4639 L1093,470.8975 L1093,470.8975 L1083,460.8975 L960,460.8975 A0,0 0 0 0 960,460.8975 " fill="#FEFFDD" style="stroke:#181818;stroke-width:0.5;"/><path d="M1083,460.8975 L1083,470.8975 L1093,470.8975 L1083,460.8975 " fill="#FEFFDD" style="stroke:#181818;stroke-width:0.5;"/><text fill="#000000" font-family="sans-serif" font-size="13" lengthAdjust="spacing" textLength="112" x="966" y="477.9644">track authenticity</text><rect fill="#F1F1F1" height="33.9688" rx="12.5" ry="12.5" style="stroke:#181818;stroke-width:0.5;" width="85" x="1113" y="456.4795"/><text fill="#000000" font-family="sans-serif" font-size="12" lengthAdjust="spacing" textLength="65" x="1123" y="477.6182">buy coffee</text><ellipse cx="1155.5" cy="520.4482" fill="none" rx="10" ry="10" style="stroke:#222222;stroke-width:1.5;"/><line style="stroke:#222222;stroke-width:2.5;" x1="1149.3128" x2="1161.6872" y1="514.2611" y2="526.6354"/><line style="stroke:#222222;stroke-width:2.5;" x1="1161.6872" x2="1149.3128" y1="514.2611" y2="526.6354"/><line style="stroke:#000000;stroke-width:1.5;" x1="955" x2="955" y1="12.7451" y2="530.4482"/><line style="stroke:#000000;stroke-width:1.5;" x1="1202" x2="1202" y1="12.7451" y2="530.4482"/><line style="stroke:#181818;stroke-width:1.0;" x1="250" x2="250" y1="58.6982" y2="78.6982"/><polygon fill="#181818" points="246,68.6982,250,78.6982,254,68.6982,250,72.6982" style="stroke:#181818;stroke-width:1.0;"/><line style="stroke:#181818;stroke-width:1.0;" x1="250" x2="250" y1="112.667" y2="132.667"/><polygon fill="#181818" points="246,122.667,250,132.667,254,122.667,250,126.667" style="stroke:#181818;stroke-width:1.0;"/><line style="stroke:#181818;stroke-width:1.0;" x1="250" x2="250" y1="166.6357" y2="186.6357"/><polygon fill="#181818" points="246,176.6357,250,186.6357,254,176.6357,250,180.6357" style="stroke:#181818;stroke-width:1.0;"/><line style="stroke:#181818;stroke-width:1.0;" x1="250" x2="250" y1="220.6045" y2="240.6045"/><polygon fill="#181818" points="246,230.6045,250,240.6045,254,230.6045,250,234.6045" style="stroke:#181818;stroke-width:1.0;"/><line style="stroke:#181818;stroke-width:1.0;" x1="1155.5" x2="1155.5" y1="490.4482" y2="510.4482"/><polygon fill="#181818" points="1151.5,500.4482,1155.5,510.4482,1159.5,500.4482,1155.5,504.4482" style="stroke:#181818;stroke-width:1.0;"/><line style="stroke:#181818;stroke-width:1.0;" x1="250" x2="250" y1="274.5732" y2="279.5732"/><line style="stroke:#181818;stroke-width:1.0;" x1="250" x2="558" y1="279.5732" y2="279.5732"/><line style="stroke:#181818;stroke-width:1.0;" x1="558" x2="558" y1="279.5732" y2="294.5732"/><polygon fill="#181818" points="554,284.5732,558,294.5732,562,284.5732,558,288.5732" style="stroke:#181818;stroke-width:1.0;"/><line style="stroke:#181818;stroke-width:1.0;" x1="558" x2="558" y1="328.542" y2="333.542"/><line style="stroke:#181818;stroke-width:1.0;" x1="558" x2="250" y1="333.542" y2="333.542"/><line style="stroke:#181818;stroke-width:1.0;" x1="250" x2="250" y1="333.542" y2="348.542"/><polygon fill="#181818" points="246,338.542,250,348.542,254,338.542,250,342.542" style="stroke:#181818;stroke-width:1.0;"/><line style="stroke:#181818;stroke-width:1.0;" x1="250" x2="250" y1="382.5107" y2="387.5107"/><line style="stroke:#181818;stroke-width:1.0;" x1="250" x2="870" y1="387.5107" y2="387.5107"/><line style="stroke:#181818;stroke-width:1.0;" x1="870" x2="870" y1="387.5107" y2="402.5107"/><polygon fill="#181818" points="866,392.5107,870,402.5107,874,392.5107,870,396.5107" style="stroke:#181818;stroke-width:1.0;"/><line style="stroke:#181818;stroke-width:1.0;" x1="870" x2="870" y1="436.4795" y2="441.4795"/><line style="stroke:#181818;stroke-width:1.0;" x1="870" x2="1155.5" y1="441.4795" y2="441.4795"/><line style="stroke:#181818;stroke-width:1.0;" x1="1155.5" x2="1155.5" y1="441.4795" y2="456.4795"/><polygon fill="#181818" points="1151.5,446.4795,1155.5,456.4795,1159.5,446.4795,1155.5,450.4795" style="stroke:#181818;stroke-width:1.0;"/><text fill="#000000" font-family="sans-serif" font-size="18" lengthAdjust="spacing" textLength="69" x="138.5" y="29.4531">Farmer</text><text fill="#000000" font-family="sans-serif" font-size="18" lengthAdjust="spacing" textLength="103" x="429.5" y="29.4531">Distributor</text><text fill="#000000" font-family="sans-serif" font-size="18" lengthAdjust="spacing" textLength="73" x="756.5" y="29.4531">Retailer</text><text fill="#000000" font-family="sans-serif" font-size="18" lengthAdjust="spacing" textLength="95" x="1031" y="29.4531">Consumer</text><!--SRC=[bP4n2iCm40HxlKBlKCg4F20_E4ihVCIHpDt9OD3Z4qEAL2PgbnbOTdlkTv8NnAcHc0ipoGOr7slEW9z0HI-kL4Fm9XIVdfhDACQHRNTXbHgX-Zz_H5zufGLcEEKffG6yftvZDU6fMHKNfhQFsBcxe3El8uxq1unu-KmO116yOKIF_LgBjkE1dxOd1afw0m00]--></g></svg>