<?xml version="1.0" encoding="UTF-8" standalone="no"?><svg xmlns="http://www.w3.org/2000/svg" xmlns:xlink="http://www.w3.org/1999/xlink" contentStyleType="text/css" height="1026px" preserveAspectRatio="none" style="width:1162px;height:1026px;background:#FFFFFF;" version="1.1" viewBox="0 0 1162 1026" width="1162px" zoomAndPan="magnify"><defs/><g><!--class Role--><g id="elem_Role"><rect codeLine="10" fill="#F1F1F1" height="96.8906" id="Role" rx="2.5" ry="2.5" style="stroke:#181818;stroke-width:0.5;" width="178" x="486.5" y="104.5"/><ellipse cx="555.25" cy="120.5" fill="#A9DCDF" rx="11" ry="11" style="stroke:#181818;stroke-width:1.0;"/><path d="M557.3281,122.3125 L557.7188,123.2969 L557.3281,123.2969 C556.875,123.2969 556.7656,123.3125 556.6094,123.4219 C556.3594,123.5781 556.2031,123.8594 556.2031,124.1563 C556.2031,124.4219 556.3438,124.6719 556.5625,124.8281 C556.7031,124.9531 556.9063,125 557.3281,125 L559.6875,125 C560.0469,125 560.2656,124.9688 560.4063,124.875 C560.6563,124.7344 560.8125,124.4375 560.8125,124.1563 C560.8125,123.875 560.6719,123.625 560.4531,123.4688 C560.2813,123.3281 560.125,123.2969 559.6563,123.2969 L556.2656,115.0938 L552.5938,115.0938 C552.1406,115.0938 552.0156,115.1094 551.8594,115.2031 C551.6094,115.375 551.4531,115.6563 551.4531,115.9375 C551.4531,116.2188 551.5938,116.4688 551.8125,116.6406 C551.9844,116.75 552.1563,116.7813 552.5938,116.7813 L553.6719,116.7813 L551.0313,123.2969 C550.6094,123.2969 550.4531,123.3125 550.2969,123.4219 C550.0469,123.5781 549.8906,123.8594 549.8906,124.1563 C549.8906,124.7188 550.2656,125 551.0156,125 L553.2813,125 C553.6406,125 553.8594,124.9688 553.9844,124.875 C554.25,124.7344 554.3906,124.4375 554.3906,124.1563 C554.3906,123.875 554.2656,123.625 554.0469,123.4531 C553.875,123.3281 553.7344,123.2969 553.2813,123.2969 L552.8906,123.2969 L553.2813,122.3125 L557.3281,122.3125 Z M556.625,120.6094 L553.9531,120.6094 L555.2969,117.3438 L556.625,120.6094 Z " fill="#000000"/><text fill="#000000" font-family="sans-serif" font-size="14" font-style="italic" lengthAdjust="spacing" textLength="32" x="575.75" y="125.3467">Role</text><line style="stroke:#181818;stroke-width:0.5;" x1="487.5" x2="663.5" y1="136.5" y2="136.5"/><line style="stroke:#181818;stroke-width:0.5;" x1="487.5" x2="663.5" y1="144.5" y2="144.5"/><text fill="#000000" font-family="sans-serif" font-size="14" lengthAdjust="spacing" textLength="127" x="492.5" y="161.4951">add(role, address)</text><text fill="#000000" font-family="sans-serif" font-size="14" lengthAdjust="spacing" textLength="156" x="492.5" y="177.792">remove(role, address)</text><text fill="#000000" font-family="sans-serif" font-size="14" lengthAdjust="spacing" textLength="166" x="492.5" y="194.0889">has(role, address): bool</text></g><!--class Farmer--><g id="elem_Farmer"><rect codeLine="15" fill="#F1F1F1" height="178.375" id="Farmer" rx="2.5" ry="2.5" style="stroke:#181818;stroke-width:0.5;" width="247" x="7" y="359"/><ellipse cx="100.75" cy="375" fill="#ADD1B2" rx="11" ry="11" style="stroke:#181818;stroke-width:1.0;"/><path d="M103.0938,370.6719 C102.1563,370.2344 101.5625,370.0938 100.6875,370.0938 C98.0625,370.0938 96.0625,372.1719 96.0625,374.8906 L96.0625,376.0156 C96.0625,378.5938 98.1719,380.4844 101.0625,380.4844 C102.2813,380.4844 103.4375,380.1875 104.1875,379.6406 C104.7656,379.2344 105.0938,378.7813 105.0938,378.3906 C105.0938,377.9375 104.7031,377.5469 104.2344,377.5469 C104.0156,377.5469 103.8125,377.625 103.625,377.8125 C103.1719,378.2969 103.1719,378.2969 102.9844,378.3906 C102.5625,378.6563 101.875,378.7813 101.1094,378.7813 C99.0625,378.7813 97.7656,377.6875 97.7656,375.9844 L97.7656,374.8906 C97.7656,373.1094 99.0156,371.7969 100.75,371.7969 C101.3281,371.7969 101.9375,371.9531 102.4063,372.2031 C102.8906,372.4844 103.0625,372.7031 103.1563,373.1094 C103.2188,373.5156 103.25,373.6406 103.3906,373.7656 C103.5313,373.9063 103.7656,374.0156 103.9844,374.0156 C104.25,374.0156 104.5156,373.875 104.6875,373.6563 C104.7969,373.5 104.8281,373.3125 104.8281,372.8906 L104.8281,371.4688 C104.8281,371.0313 104.8125,370.9063 104.7188,370.75 C104.5625,370.4844 104.2813,370.3438 103.9844,370.3438 C103.6875,370.3438 103.4844,370.4375 103.2656,370.75 L103.0938,370.6719 Z " fill="#000000"/><text fill="#000000" font-family="sans-serif" font-size="14" lengthAdjust="spacing" textLength="51" x="121.25" y="379.8467">Farmer</text><line style="stroke:#181818;stroke-width:0.5;" x1="8" x2="253" y1="391" y2="391"/><text fill="#000000" font-family="sans-serif" font-size="14" lengthAdjust="spacing" textLength="97" x="13" y="407.9951">farmers: Role</text><line style="stroke:#181818;stroke-width:0.5;" x1="8" x2="253" y1="415.2969" y2="415.2969"/><text fill="#000000" font-family="sans-serif" font-size="14" lengthAdjust="spacing" textLength="213" x="13" y="432.292">FarmerAdded(address): Event</text><text fill="#000000" font-family="sans-serif" font-size="14" lengthAdjust="spacing" textLength="235" x="13" y="448.5889">FarmerRemoved(address): Event</text><text fill="#000000" font-family="sans-serif" font-size="14" lengthAdjust="spacing" textLength="4" x="13" y="464.8857"> </text><text fill="#000000" font-family="sans-serif" font-size="14" lengthAdjust="spacing" textLength="91" x="13" y="481.1826">onlyFarmer()</text><text fill="#000000" font-family="sans-serif" font-size="14" lengthAdjust="spacing" textLength="162" x="13" y="497.4795">isFamer(address): bool</text><text fill="#000000" font-family="sans-serif" font-size="14" lengthAdjust="spacing" textLength="133" x="13" y="513.7764">addFarmer(adress)</text><text fill="#000000" font-family="sans-serif" font-size="14" lengthAdjust="spacing" textLength="116" x="13" y="530.0732">removeFarmer()</text></g><!--class Distributor--><g id="elem_Distributor"><rect codeLine="25" fill="#F1F1F1" height="178.375" id="Distributor" rx="2.5" ry="2.5" style="stroke:#181818;stroke-width:0.5;" width="275" x="289" y="359"/><ellipse cx="382.75" cy="375" fill="#ADD1B2" rx="11" ry="11" style="stroke:#181818;stroke-width:1.0;"/><path d="M385.0938,370.6719 C384.1563,370.2344 383.5625,370.0938 382.6875,370.0938 C380.0625,370.0938 378.0625,372.1719 378.0625,374.8906 L378.0625,376.0156 C378.0625,378.5938 380.1719,380.4844 383.0625,380.4844 C384.2813,380.4844 385.4375,380.1875 386.1875,379.6406 C386.7656,379.2344 387.0938,378.7813 387.0938,378.3906 C387.0938,377.9375 386.7031,377.5469 386.2344,377.5469 C386.0156,377.5469 385.8125,377.625 385.625,377.8125 C385.1719,378.2969 385.1719,378.2969 384.9844,378.3906 C384.5625,378.6563 383.875,378.7813 383.1094,378.7813 C381.0625,378.7813 379.7656,377.6875 379.7656,375.9844 L379.7656,374.8906 C379.7656,373.1094 381.0156,371.7969 382.75,371.7969 C383.3281,371.7969 383.9375,371.9531 384.4063,372.2031 C384.8906,372.4844 385.0625,372.7031 385.1563,373.1094 C385.2188,373.5156 385.25,373.6406 385.3906,373.7656 C385.5313,373.9063 385.7656,374.0156 385.9844,374.0156 C386.25,374.0156 386.5156,373.875 386.6875,373.6563 C386.7969,373.5 386.8281,373.3125 386.8281,372.8906 L386.8281,371.4688 C386.8281,371.0313 386.8125,370.9063 386.7188,370.75 C386.5625,370.4844 386.2813,370.3438 385.9844,370.3438 C385.6875,370.3438 385.4844,370.4375 385.2656,370.75 L385.0938,370.6719 Z " fill="#000000"/><text fill="#000000" font-family="sans-serif" font-size="14" lengthAdjust="spacing" textLength="79" x="403.25" y="379.8467">Distributor</text><line style="stroke:#181818;stroke-width:0.5;" x1="290" x2="563" y1="391" y2="391"/><text fill="#000000" font-family="sans-serif" font-size="14" lengthAdjust="spacing" textLength="125" x="295" y="407.9951">distributors: Role</text><line style="stroke:#181818;stroke-width:0.5;" x1="290" x2="563" y1="415.2969" y2="415.2969"/><text fill="#000000" font-family="sans-serif" font-size="14" lengthAdjust="spacing" textLength="241" x="295" y="432.292">DistributorAdded(address): Event</text><text fill="#000000" font-family="sans-serif" font-size="14" lengthAdjust="spacing" textLength="263" x="295" y="448.5889">DistributorRemoved(address): Event</text><text fill="#000000" font-family="sans-serif" font-size="14" lengthAdjust="spacing" textLength="4" x="295" y="464.8857"> </text><text fill="#000000" font-family="sans-serif" font-size="14" lengthAdjust="spacing" textLength="119" x="295" y="481.1826">onlyDistributor()</text><text fill="#000000" font-family="sans-serif" font-size="14" lengthAdjust="spacing" textLength="196" x="295" y="497.4795">isDistributor(address): bool</text><text fill="#000000" font-family="sans-serif" font-size="14" lengthAdjust="spacing" textLength="170" x="295" y="513.7764">addDistributor(address)</text><text fill="#000000" font-family="sans-serif" font-size="14" lengthAdjust="spacing" textLength="144" x="295" y="530.0732">removeDistributor()</text></g><!--class Retailer--><g id="elem_Retailer"><rect codeLine="35" fill="#F1F1F1" height="178.375" id="Retailer" rx="2.5" ry="2.5" style="stroke:#181818;stroke-width:0.5;" width="253" x="599" y="359"/><ellipse cx="692.75" cy="375" fill="#ADD1B2" rx="11" ry="11" style="stroke:#181818;stroke-width:1.0;"/><path d="M695.0938,370.6719 C694.1563,370.2344 693.5625,370.0938 692.6875,370.0938 C690.0625,370.0938 688.0625,372.1719 688.0625,374.8906 L688.0625,376.0156 C688.0625,378.5938 690.1719,380.4844 693.0625,380.4844 C694.2813,380.4844 695.4375,380.1875 696.1875,379.6406 C696.7656,379.2344 697.0938,378.7813 697.0938,378.3906 C697.0938,377.9375 696.7031,377.5469 696.2344,377.5469 C696.0156,377.5469 695.8125,377.625 695.625,377.8125 C695.1719,378.2969 695.1719,378.2969 694.9844,378.3906 C694.5625,378.6563 693.875,378.7813 693.1094,378.7813 C691.0625,378.7813 689.7656,377.6875 689.7656,375.9844 L689.7656,374.8906 C689.7656,373.1094 691.0156,371.7969 692.75,371.7969 C693.3281,371.7969 693.9375,371.9531 694.4063,372.2031 C694.8906,372.4844 695.0625,372.7031 695.1563,373.1094 C695.2188,373.5156 695.25,373.6406 695.3906,373.7656 C695.5313,373.9063 695.7656,374.0156 695.9844,374.0156 C696.25,374.0156 696.5156,373.875 696.6875,373.6563 C696.7969,373.5 696.8281,373.3125 696.8281,372.8906 L696.8281,371.4688 C696.8281,371.0313 696.8125,370.9063 696.7188,370.75 C696.5625,370.4844 696.2813,370.3438 695.9844,370.3438 C695.6875,370.3438 695.4844,370.4375 695.2656,370.75 L695.0938,370.6719 Z " fill="#000000"/><text fill="#000000" font-family="sans-serif" font-size="14" lengthAdjust="spacing" textLength="57" x="713.25" y="379.8467">Retailer</text><line style="stroke:#181818;stroke-width:0.5;" x1="600" x2="851" y1="391" y2="391"/><text fill="#000000" font-family="sans-serif" font-size="14" lengthAdjust="spacing" textLength="101" x="605" y="407.9951">retailers: Role</text><line style="stroke:#181818;stroke-width:0.5;" x1="600" x2="851" y1="415.2969" y2="415.2969"/><text fill="#000000" font-family="sans-serif" font-size="14" lengthAdjust="spacing" textLength="219" x="605" y="432.292">RetailerAdded(address): Event</text><text fill="#000000" font-family="sans-serif" font-size="14" lengthAdjust="spacing" textLength="241" x="605" y="448.5889">RetailerRemoved(address): Event</text><text fill="#000000" font-family="sans-serif" font-size="14" lengthAdjust="spacing" textLength="4" x="605" y="464.8857"> </text><text fill="#000000" font-family="sans-serif" font-size="14" lengthAdjust="spacing" textLength="119" x="605" y="481.1826">onlyDistributor()</text><text fill="#000000" font-family="sans-serif" font-size="14" lengthAdjust="spacing" textLength="174" x="605" y="497.4795">isRetailer(address): bool</text><text fill="#000000" font-family="sans-serif" font-size="14" lengthAdjust="spacing" textLength="148" x="605" y="513.7764">addRetailer(address)</text><text fill="#000000" font-family="sans-serif" font-size="14" lengthAdjust="spacing" textLength="122" x="605" y="530.0732">removeRetailer()</text></g><!--class Consumer--><g id="elem_Consumer"><rect codeLine="45" fill="#F1F1F1" height="178.375" id="Consumer" rx="2.5" ry="2.5" style="stroke:#181818;stroke-width:0.5;" width="268" x="887.5" y="359"/><ellipse cx="981.25" cy="375" fill="#ADD1B2" rx="11" ry="11" style="stroke:#181818;stroke-width:1.0;"/><path d="M983.5938,370.6719 C982.6563,370.2344 982.0625,370.0938 981.1875,370.0938 C978.5625,370.0938 976.5625,372.1719 976.5625,374.8906 L976.5625,376.0156 C976.5625,378.5938 978.6719,380.4844 981.5625,380.4844 C982.7813,380.4844 983.9375,380.1875 984.6875,379.6406 C985.2656,379.2344 985.5938,378.7813 985.5938,378.3906 C985.5938,377.9375 985.2031,377.5469 984.7344,377.5469 C984.5156,377.5469 984.3125,377.625 984.125,377.8125 C983.6719,378.2969 983.6719,378.2969 983.4844,378.3906 C983.0625,378.6563 982.375,378.7813 981.6094,378.7813 C979.5625,378.7813 978.2656,377.6875 978.2656,375.9844 L978.2656,374.8906 C978.2656,373.1094 979.5156,371.7969 981.25,371.7969 C981.8281,371.7969 982.4375,371.9531 982.9063,372.2031 C983.3906,372.4844 983.5625,372.7031 983.6563,373.1094 C983.7188,373.5156 983.75,373.6406 983.8906,373.7656 C984.0313,373.9063 984.2656,374.0156 984.4844,374.0156 C984.75,374.0156 985.0156,373.875 985.1875,373.6563 C985.2969,373.5 985.3281,373.3125 985.3281,372.8906 L985.3281,371.4688 C985.3281,371.0313 985.3125,370.9063 985.2188,370.75 C985.0625,370.4844 984.7813,370.3438 984.4844,370.3438 C984.1875,370.3438 983.9844,370.4375 983.7656,370.75 L983.5938,370.6719 Z " fill="#000000"/><text fill="#000000" font-family="sans-serif" font-size="14" lengthAdjust="spacing" textLength="72" x="1001.75" y="379.8467">Consumer</text><line style="stroke:#181818;stroke-width:0.5;" x1="888.5" x2="1154.5" y1="391" y2="391"/><text fill="#000000" font-family="sans-serif" font-size="14" lengthAdjust="spacing" textLength="118" x="893.5" y="407.9951">consumers: Role</text><line style="stroke:#181818;stroke-width:0.5;" x1="888.5" x2="1154.5" y1="415.2969" y2="415.2969"/><text fill="#000000" font-family="sans-serif" font-size="14" lengthAdjust="spacing" textLength="234" x="893.5" y="432.292">ConsumerAdded(address): Event</text><text fill="#000000" font-family="sans-serif" font-size="14" lengthAdjust="spacing" textLength="256" x="893.5" y="448.5889">ConsumerRemoved(address): Event</text><text fill="#000000" font-family="sans-serif" font-size="14" lengthAdjust="spacing" textLength="4" x="893.5" y="464.8857"> </text><text fill="#000000" font-family="sans-serif" font-size="14" lengthAdjust="spacing" textLength="112" x="893.5" y="481.1826">onlyConsumer()</text><text fill="#000000" font-family="sans-serif" font-size="14" lengthAdjust="spacing" textLength="189" x="893.5" y="497.4795">isConsumer(address): bool</text><text fill="#000000" font-family="sans-serif" font-size="14" lengthAdjust="spacing" textLength="163" x="893.5" y="513.7764">addConsumer(address)</text><text fill="#000000" font-family="sans-serif" font-size="14" lengthAdjust="spacing" textLength="137" x="893.5" y="530.0732">removeConsumer()</text></g><!--class SupplyChain--><g id="elem_SupplyChain"><rect codeLine="72" fill="#F1F1F1" height="422.8281" id="SupplyChain" rx="2.5" ry="2.5" style="stroke:#181818;stroke-width:0.5;" width="174" x="488.5" y="597"/><ellipse cx="527.35" cy="613" fill="#ADD1B2" rx="11" ry="11" style="stroke:#181818;stroke-width:1.0;"/><path d="M529.6938,608.6719 C528.7563,608.2344 528.1625,608.0938 527.2875,608.0938 C524.6625,608.0938 522.6625,610.1719 522.6625,612.8906 L522.6625,614.0156 C522.6625,616.5938 524.7719,618.4844 527.6625,618.4844 C528.8813,618.4844 530.0375,618.1875 530.7875,617.6406 C531.3656,617.2344 531.6938,616.7813 531.6938,616.3906 C531.6938,615.9375 531.3031,615.5469 530.8344,615.5469 C530.6156,615.5469 530.4125,615.625 530.225,615.8125 C529.7719,616.2969 529.7719,616.2969 529.5844,616.3906 C529.1625,616.6563 528.475,616.7813 527.7094,616.7813 C525.6625,616.7813 524.3656,615.6875 524.3656,613.9844 L524.3656,612.8906 C524.3656,611.1094 525.6156,609.7969 527.35,609.7969 C527.9281,609.7969 528.5375,609.9531 529.0063,610.2031 C529.4906,610.4844 529.6625,610.7031 529.7563,611.1094 C529.8188,611.5156 529.85,611.6406 529.9906,611.7656 C530.1313,611.9063 530.3656,612.0156 530.5844,612.0156 C530.85,612.0156 531.1156,611.875 531.2875,611.6563 C531.3969,611.5 531.4281,611.3125 531.4281,610.8906 L531.4281,609.4688 C531.4281,609.0313 531.4125,608.9063 531.3188,608.75 C531.1625,608.4844 530.8813,608.3438 530.5844,608.3438 C530.2875,608.3438 530.0844,608.4375 529.8656,608.75 L529.6938,608.6719 Z " fill="#000000"/><text fill="#000000" font-family="sans-serif" font-size="14" lengthAdjust="spacing" textLength="89" x="546.65" y="617.8467">SupplyChain</text><line style="stroke:#181818;stroke-width:0.5;" x1="489.5" x2="661.5" y1="629" y2="629"/><text fill="#000000" font-family="sans-serif" font-size="14" lengthAdjust="spacing" textLength="108" x="494.5" y="645.9951">owner: address</text><text fill="#000000" font-family="sans-serif" font-size="14" lengthAdjust="spacing" textLength="63" x="494.5" y="662.292">upc: uint</text><text fill="#000000" font-family="sans-serif" font-size="14" lengthAdjust="spacing" textLength="61" x="494.5" y="678.5889">sku: uint</text><text fill="#000000" font-family="sans-serif" font-size="14" lengthAdjust="spacing" textLength="84" x="494.5" y="694.8857">items: Item</text><text fill="#000000" font-family="sans-serif" font-size="14" lengthAdjust="spacing" textLength="153" x="494.5" y="711.1826">itemsHistory: string[]</text><line style="stroke:#181818;stroke-width:0.5;" x1="489.5" x2="661.5" y1="718.4844" y2="718.4844"/><text fill="#000000" font-family="sans-serif" font-size="14" lengthAdjust="spacing" textLength="162" x="494.5" y="735.4795">Harvested(uint): Event</text><text fill="#000000" font-family="sans-serif" font-size="14" lengthAdjust="spacing" textLength="162" x="494.5" y="751.7764">Processed(uint): Event</text><text fill="#000000" font-family="sans-serif" font-size="14" lengthAdjust="spacing" textLength="141" x="494.5" y="768.0732">Packed(uint): Event</text><text fill="#000000" font-family="sans-serif" font-size="14" lengthAdjust="spacing" textLength="142" x="494.5" y="784.3701">ForSale(uint): Event</text><text fill="#000000" font-family="sans-serif" font-size="14" lengthAdjust="spacing" textLength="120" x="494.5" y="800.667">Sold(uint): Event</text><text fill="#000000" font-family="sans-serif" font-size="14" lengthAdjust="spacing" textLength="155" x="494.5" y="816.9639">Received(uint): Event</text><text fill="#000000" font-family="sans-serif" font-size="14" lengthAdjust="spacing" textLength="162" x="494.5" y="833.2607">Purchased(uint): Event</text><text fill="#000000" font-family="sans-serif" font-size="14" lengthAdjust="spacing" textLength="4" x="494.5" y="849.5576"> </text><text fill="#000000" font-family="sans-serif" font-size="14" lengthAdjust="spacing" textLength="116" x="494.5" y="865.8545">harvestedItem()</text><text fill="#000000" font-family="sans-serif" font-size="14" lengthAdjust="spacing" textLength="100" x="494.5" y="882.1514">processItem()</text><text fill="#000000" font-family="sans-serif" font-size="14" lengthAdjust="spacing" textLength="79" x="494.5" y="898.4482">packItem()</text><text fill="#000000" font-family="sans-serif" font-size="14" lengthAdjust="spacing" textLength="68" x="494.5" y="914.7451">sellItem()</text><text fill="#000000" font-family="sans-serif" font-size="14" lengthAdjust="spacing" textLength="70" x="494.5" y="931.042">buyItem()</text><text fill="#000000" font-family="sans-serif" font-size="14" lengthAdjust="spacing" textLength="74" x="494.5" y="947.3389">shipItem()</text><text fill="#000000" font-family="sans-serif" font-size="14" lengthAdjust="spacing" textLength="97" x="494.5" y="963.6357">receiveItem()</text><text fill="#000000" font-family="sans-serif" font-size="14" lengthAdjust="spacing" textLength="109" x="494.5" y="979.9326">purchaseItem()</text><text fill="#000000" font-family="sans-serif" font-size="14" lengthAdjust="spacing" textLength="157" x="494.5" y="996.2295">fetchItemBufferOne()</text><text fill="#000000" font-family="sans-serif" font-size="14" lengthAdjust="spacing" textLength="157" x="494.5" y="1012.5264">fetchItemBufferTwo()</text></g><!--class Ownable--><g id="elem_Ownable"><rect codeLine="98" fill="#F1F1F1" height="178.375" id="Ownable" rx="2.5" ry="2.5" style="stroke:#181818;stroke-width:0.5;" width="318" x="697.5" y="719.5"/><ellipse cx="821.25" cy="735.5" fill="#B4A7E5" rx="11" ry="11" style="stroke:#181818;stroke-width:1.0;"/><path d="M822.2031,732.2813 L823.9219,732.2813 C824.3125,732.2813 824.5,732.25 824.625,732.1719 C824.8906,732.0156 825.0313,731.7344 825.0313,731.4375 C825.0313,731.1719 824.9219,730.9063 824.6875,730.7344 C824.5156,730.625 824.375,730.5938 823.9219,730.5938 L818.7813,730.5938 C818.3438,730.5938 818.2188,730.6094 818.0625,730.7031 C817.8125,730.8594 817.6563,731.1563 817.6563,731.4375 C817.6563,731.7188 817.7969,731.9688 818.0156,732.1406 C818.1719,732.25 818.3594,732.2813 818.7813,732.2813 L820.5,732.2813 L820.5,738.7969 L818.7813,738.7969 C818.3438,738.7969 818.2188,738.8125 818.0625,738.9219 C817.8125,739.0781 817.6563,739.3594 817.6563,739.6563 C817.6563,739.9063 817.7969,740.1719 818.0156,740.3281 C818.1719,740.4531 818.375,740.5 818.7813,740.5 L823.9219,740.5 C824.6719,740.5 825.0313,740.2188 825.0313,739.6563 C825.0313,739.375 824.9219,739.125 824.6875,738.9531 C824.5156,738.8281 824.375,738.7969 823.9219,738.7969 L822.2031,738.7969 L822.2031,732.2813 Z " fill="#000000"/><text fill="#000000" font-family="sans-serif" font-size="14" font-style="italic" lengthAdjust="spacing" textLength="62" x="841.75" y="740.3467">Ownable</text><line style="stroke:#181818;stroke-width:0.5;" x1="698.5" x2="1014.5" y1="751.5" y2="751.5"/><text fill="#000000" font-family="sans-serif" font-size="14" lengthAdjust="spacing" textLength="108" x="703.5" y="768.4951">owner: address</text><line style="stroke:#181818;stroke-width:0.5;" x1="698.5" x2="1014.5" y1="775.7969" y2="775.7969"/><text fill="#000000" font-family="sans-serif" font-size="14" lengthAdjust="spacing" textLength="306" x="703.5" y="792.792">TrasferOwnership(address, address): Event</text><text fill="#000000" font-family="sans-serif" font-size="14" lengthAdjust="spacing" textLength="4" x="703.5" y="809.0889"> </text><text fill="#000000" font-family="sans-serif" font-size="14" lengthAdjust="spacing" textLength="118" x="703.5" y="825.3857">owner(): address</text><text fill="#000000" font-family="sans-serif" font-size="14" lengthAdjust="spacing" textLength="86" x="703.5" y="841.6826">onlyOwner()</text><text fill="#000000" font-family="sans-serif" font-size="14" lengthAdjust="spacing" textLength="108" x="703.5" y="857.9795">isOwner(): bool</text><text fill="#000000" font-family="sans-serif" font-size="14" lengthAdjust="spacing" textLength="160" x="703.5" y="874.2764">renosunceOwnership()</text><text fill="#000000" font-family="sans-serif" font-size="14" lengthAdjust="spacing" textLength="199" x="703.5" y="890.5732">transferOwnership(address)</text></g><!--class Item--><g id="elem_Item"><rect codeLine="55" fill="#F1F1F1" height="292.4531" id="Item" rx="2.5" ry="2.5" style="stroke:#181818;stroke-width:0.5;" width="225" x="700" y="7"/><ellipse cx="791.25" cy="23" fill="#F1F1F1" rx="11" ry="11" style="stroke:#181818;stroke-width:1.0;"/><path d="M795.0313,18.9688 C795.0313,18.5313 795.0156,18.3906 794.9219,18.2344 C794.7813,18 794.5,17.8438 794.2031,17.8438 C793.8594,17.8438 793.7188,17.9844 793.5469,18.4063 C792.9531,18.0313 792.2031,17.8438 791.3281,17.8438 C789.2188,17.8438 787.6406,19.1406 787.6406,20.8594 C787.6406,21.8281 788.1719,22.7344 789.0313,23.2188 C789.5781,23.5313 790.125,23.7031 791.2344,23.8906 C792.3906,24.0938 792.6563,24.1563 793.0156,24.3438 C793.3906,24.5469 793.625,24.8906 793.625,25.25 C793.625,25.9844 792.6406,26.5313 791.3906,26.5313 C790.2656,26.5313 789.1875,26.0469 789.0156,25.4375 C788.8906,24.9688 788.8906,24.9688 788.7656,24.8594 C788.6094,24.7031 788.3906,24.6094 788.1563,24.6094 C787.875,24.6094 787.625,24.7344 787.4531,24.9531 C787.3438,25.125 787.2969,25.3125 787.2969,25.7344 L787.2969,26.8594 C787.2969,27.625 787.5781,27.9844 788.1719,27.9844 C788.4375,27.9844 788.5625,27.9219 788.8438,27.5781 C789.6875,28.0156 790.5781,28.2344 791.5,28.2344 C793.8281,28.2344 795.3906,27.0469 795.3906,25.2813 C795.3906,24.3906 795.0781,23.7031 794.3906,23.1563 C793.8594,22.7344 793.2188,22.4844 791.7344,22.2188 C790.4688,21.9844 790.375,21.9531 790.0469,21.7813 C789.6719,21.5938 789.4063,21.2031 789.4063,20.8438 C789.4063,20.1094 790.2656,19.5469 791.3281,19.5469 C792.3906,19.5469 793.2031,20.0156 793.3594,20.6875 C793.4688,21.2344 793.4688,21.2344 793.5938,21.375 C793.7344,21.5 793.9688,21.6094 794.2031,21.6094 C794.4688,21.6094 794.7188,21.4688 794.8906,21.25 C795,21.0781 795.0313,20.9375 795.0313,20.4688 L795.0313,18.9688 Z " fill="#000000"/><text fill="#000000" font-family="sans-serif" font-size="14" lengthAdjust="spacing" textLength="34" x="811.75" y="27.8467">Item</text><line style="stroke:#181818;stroke-width:0.5;" x1="701" x2="924" y1="39" y2="39"/><text fill="#000000" font-family="sans-serif" font-size="14" lengthAdjust="spacing" textLength="61" x="706" y="55.9951">sku: uint</text><text fill="#000000" font-family="sans-serif" font-size="14" lengthAdjust="spacing" textLength="63" x="706" y="72.292">upc: uint</text><text fill="#000000" font-family="sans-serif" font-size="14" lengthAdjust="spacing" textLength="123" x="706" y="88.5889">ownerID: address</text><text fill="#000000" font-family="sans-serif" font-size="14" lengthAdjust="spacing" textLength="171" x="706" y="104.8857">originFarmerID: address</text><text fill="#000000" font-family="sans-serif" font-size="14" lengthAdjust="spacing" textLength="169" x="706" y="121.1826">originFarmName: string</text><text fill="#000000" font-family="sans-serif" font-size="14" lengthAdjust="spacing" textLength="213" x="706" y="137.4795">originFarmInformation: string</text><text fill="#000000" font-family="sans-serif" font-size="14" lengthAdjust="spacing" textLength="188" x="706" y="153.7764">originFarmLatitude: string</text><text fill="#000000" font-family="sans-serif" font-size="14" lengthAdjust="spacing" textLength="200" x="706" y="170.0732">originFarmLongitude: string</text><text fill="#000000" font-family="sans-serif" font-size="14" lengthAdjust="spacing" textLength="109" x="706" y="186.3701">productID: uint</text><text fill="#000000" font-family="sans-serif" font-size="14" lengthAdjust="spacing" textLength="150" x="706" y="202.667">productNotes: string</text><text fill="#000000" font-family="sans-serif" font-size="14" lengthAdjust="spacing" textLength="130" x="706" y="218.9639">productPrice: uint</text><text fill="#000000" font-family="sans-serif" font-size="14" lengthAdjust="spacing" textLength="123" x="706" y="235.2607">itemState: State</text><text fill="#000000" font-family="sans-serif" font-size="14" lengthAdjust="spacing" textLength="156" x="706" y="251.5576">distributorID: address</text><text fill="#000000" font-family="sans-serif" font-size="14" lengthAdjust="spacing" textLength="132" x="706" y="267.8545">retailerID: address</text><text fill="#000000" font-family="sans-serif" font-size="14" lengthAdjust="spacing" textLength="149" x="706" y="284.1514">consumerID: address</text><line style="stroke:#181818;stroke-width:0.5;" x1="701" x2="924" y1="291.4531" y2="291.4531"/></g><!--link Role to Farmer--><g id="link_Role_Farmer"><path codeLine="1" d="M503.013,201.728 C438.798,244.008 343.38,306.834 265.193,358.315 " fill="none" id="Role-to-Farmer" style="stroke:#181818;stroke-width:1.0;"/><polygon fill="#181818" points="254.279,365.5,261.49,365.5413,264.3016,358.9009,257.0906,358.8596,254.279,365.5" style="stroke:#181818;stroke-width:1.0;"/></g><!--link Role to Distributor--><g id="link_Role_Distributor"><path codeLine="2" d="M551.229,201.728 C531.265,240.985 502.295,297.954 477.298,347.109 " fill="none" id="Role-to-Distributor" style="stroke:#181818;stroke-width:1.0;"/><polygon fill="#181818" points="471.369,358.767,477.6539,355.2315,476.8077,348.0703,470.5228,351.6057,471.369,358.767" style="stroke:#181818;stroke-width:1.0;"/></g><!--link Role to Retailer--><g id="link_Role_Retailer"><path codeLine="3" d="M599.934,201.728 C620.031,240.985 649.197,297.954 674.361,347.109 " fill="none" id="Role-to-Retailer" style="stroke:#181818;stroke-width:1.0;"/><polygon fill="#181818" points="680.329,358.767,681.1559,351.6035,674.8614,348.085,674.0345,355.2485,680.329,358.767" style="stroke:#181818;stroke-width:1.0;"/></g><!--link Role to Consumer--><g id="link_Role_Consumer"><path codeLine="4" d="M600.188,201.626 C618.873,233.358 647.304,273.726 682.5,299 C753.398,349.912 789.718,323.597 869.5,359 C871.421,359.852 873.348,360.722 875.28,361.609 " fill="none" id="Role-to-Consumer" style="stroke:#181818;stroke-width:1.0;"/><polygon fill="#181818" points="887.197,367.245,883.4835,361.0636,876.3493,362.1139,880.0628,368.2953,887.197,367.245" style="stroke:#181818;stroke-width:1.0;"/></g><!--reverse link Farmer to SupplyChain--><g id="link_Farmer_SupplyChain"><path codeLine="5" d="M243.989,540.429 C320.027,601.686 418.625,681.118 488.469,737.386 " fill="none" id="Farmer-backto-SupplyChain" style="stroke:#181818;stroke-width:1.0;"/><polygon fill="#181818" points="239.929,537.158,244.4284,545.919,243.8227,540.2947,249.4471,539.6891,239.929,537.158" style="stroke:#181818;stroke-width:1.0;"/></g><!--reverse link Distributor to SupplyChain--><g id="link_Distributor_SupplyChain"><path codeLine="6" d="M465.178,542.062 C472.462,559.586 480.345,578.553 488.432,598.01 " fill="none" id="Distributor-backto-SupplyChain" style="stroke:#181818;stroke-width:1.0;"/><polygon fill="#181818" points="463.14,537.158,462.8997,547.0039,465.0586,541.7752,470.2873,543.9341,463.14,537.158" style="stroke:#181818;stroke-width:1.0;"/></g><!--reverse link Retailer to SupplyChain--><g id="link_Retailer_SupplyChain"><path codeLine="7" d="M686.517,542.171 C679.02,560.086 670.895,579.507 662.565,599.414 " fill="none" id="Retailer-backto-SupplyChain" style="stroke:#181818;stroke-width:1.0;"/><polygon fill="#181818" points="688.614,537.158,681.4502,543.9167,686.6841,541.7705,688.8303,547.0045,688.614,537.158" style="stroke:#181818;stroke-width:1.0;"/></g><!--reverse link Consumer to SupplyChain--><g id="link_Consumer_SupplyChain"><path codeLine="8" d="M882.484,531.045 C878.136,533.108 873.801,535.099 869.5,537 C788.889,572.622 747.465,539.704 680.5,597 C674.294,602.31 668.417,608.075 662.855,614.192 " fill="none" id="Consumer-backto-SupplyChain" style="stroke:#181818;stroke-width:1.0;"/><polygon fill="#181818" points="887.207,528.778,877.3624,529.068,882.6997,530.9424,880.8254,536.2797,887.207,528.778" style="stroke:#181818;stroke-width:1.0;"/></g><!--link SupplyChain to Ownable--><g id="link_SupplyChain_Ownable"><path codeLine="9" d="M662.764,808.5 C672.538,808.5 682.312,808.5 692.086,808.5 " fill="none" id="SupplyChain-to-Ownable" style="stroke:#181818;stroke-width:1.0;"/><polygon fill="#181818" points="697.197,808.5,688.197,804.5,692.197,808.5,688.197,812.5,697.197,808.5" style="stroke:#181818;stroke-width:1.0;"/></g><!--SRC=[dLLDR-8m4BtdL_X8LyiVGBtijekAL9KgzBRQWt4cO3NOaJz0gEf_NpksmoHnLAbSminx6RzdppYbR80iAtaHonzaJTK9L57Y77dasYY-jqQEa18CvSsO_o25jhvAA4Rk0q1sjcsRwyEHSb6WabayLSw2QO4ikBq8kdTgxfSDr6Q8qRrRbJ93EhqV1N4_MbKBvSAV_fy2hU-wj8AJF4CEEL8zIg_8Nigc-2nOGxMEUnZBrrsWLzsINIR0lweAgiMjmfyp28Fmibj_okWeKZJNG5i4JLolgOz6YgA_IAKJUtsD91qVIz1VtJBO12BEEq6aB-qWRky9v_BESWpaRrWqcUnxwoDIGuZj9SgyjyJubh7qyeoh2OmizTZDJpyEmG-B8VQJAFD-4kDBFudOc-aJUJCJ69b1jJuBjqtMZUR6m2awqUzsHIoF2ctBKEJc7jJcSPM6C2GLFt0HkdeUUt6ZiYB-LCHX16r4BTM96Yx53EFPWSPMSmMUfJXCyLR9oddpade3CVSY3UWS-LLn1eZFtRxi33Kkrpt6qpdsczfwd4_jWVEfaz1T6O-Ws-PXWU4v3C_8YtHk_1dUuYSdKgfhCldtNsYc9whEe8thDV_we1bVbMHkkIn4sNiklvPgHnkO0ZlPPEWbCE3dx09MCNV5Zw5uzKV9tc0SW3PenHad4OKQcWQ5Utl5u96tA5H15YuMvQ1K3OOTVVpRrZMehO0yy7QHtM0v6w1goe2aR-FisRufgdr9ZtXfQMZnjmxV1vwtk1iDchiajW68DyGsqVfxGO6GsWe6jvK2sNsUHLQ1C_8V]--></g></svg>