<?xml version="1.0" encoding="UTF-8" standalone="no"?><svg xmlns="http://www.w3.org/2000/svg" xmlns:xlink="http://www.w3.org/1999/xlink" contentStyleType="text/css" height="442px" preserveAspectRatio="none" style="width:551px;height:442px;background:#FFFFFF;" version="1.1" viewBox="0 0 551 442" width="551px" zoomAndPan="magnify"><defs/><g><rect fill="#FFFFFF" height="352.3281" style="stroke:#181818;stroke-width:1.0;" width="10" x="53" y="46.2969"/><rect fill="#FFFFFF" height="234.7969" style="stroke:#181818;stroke-width:1.0;" width="10" x="176" y="67.4297"/><rect fill="#FFFFFF" height="59.1328" style="stroke:#181818;stroke-width:1.0;" width="10" x="273" y="154.8281"/><rect fill="#FFFFFF" height="147.3984" style="stroke:#181818;stroke-width:1.0;" width="10" x="365" y="183.9609"/><rect fill="#FFFFFF" height="59.1328" style="stroke:#181818;stroke-width:1.0;" width="10" x="497" y="272.2266"/><line style="stroke:#181818;stroke-width:0.5;stroke-dasharray:5.0,5.0;" x1="58" x2="58" y1="36.2969" y2="407.625"/><line style="stroke:#181818;stroke-width:0.5;stroke-dasharray:5.0,5.0;" x1="180.5" x2="180.5" y1="36.2969" y2="407.625"/><line style="stroke:#181818;stroke-width:0.5;stroke-dasharray:5.0,5.0;" x1="277.5" x2="277.5" y1="36.2969" y2="407.625"/><line style="stroke:#181818;stroke-width:0.5;stroke-dasharray:5.0,5.0;" x1="369.5" x2="369.5" y1="36.2969" y2="407.625"/><line style="stroke:#181818;stroke-width:0.5;stroke-dasharray:5.0,5.0;" x1="502" x2="502" y1="36.2969" y2="407.625"/><rect fill="#E2E2F0" height="30.2969" rx="2.5" ry="2.5" style="stroke:#181818;stroke-width:0.5;" width="106" x="5" y="5"/><text fill="#000000" font-family="sans-serif" font-size="14" lengthAdjust="spacing" textLength="92" x="12" y="24.9951">CoffeeBeans</text><rect fill="#E2E2F0" height="30.2969" rx="2.5" ry="2.5" style="stroke:#181818;stroke-width:0.5;" width="106" x="5" y="406.625"/><text fill="#000000" font-family="sans-serif" font-size="14" lengthAdjust="spacing" textLength="92" x="12" y="426.6201">CoffeeBeans</text><rect fill="#E2E2F0" height="30.2969" rx="2.5" ry="2.5" style="stroke:#181818;stroke-width:0.5;" width="65" x="148.5" y="5"/><text fill="#000000" font-family="sans-serif" font-size="14" lengthAdjust="spacing" textLength="51" x="155.5" y="24.9951">Farmer</text><rect fill="#E2E2F0" height="30.2969" rx="2.5" ry="2.5" style="stroke:#181818;stroke-width:0.5;" width="65" x="148.5" y="406.625"/><text fill="#000000" font-family="sans-serif" font-size="14" lengthAdjust="spacing" textLength="51" x="155.5" y="426.6201">Farmer</text><rect fill="#E2E2F0" height="30.2969" rx="2.5" ry="2.5" style="stroke:#181818;stroke-width:0.5;" width="93" x="231.5" y="5"/><text fill="#000000" font-family="sans-serif" font-size="14" lengthAdjust="spacing" textLength="79" x="238.5" y="24.9951">Distributor</text><rect fill="#E2E2F0" height="30.2969" rx="2.5" ry="2.5" style="stroke:#181818;stroke-width:0.5;" width="93" x="231.5" y="406.625"/><text fill="#000000" font-family="sans-serif" font-size="14" lengthAdjust="spacing" textLength="79" x="238.5" y="426.6201">Distributor</text><rect fill="#E2E2F0" height="30.2969" rx="2.5" ry="2.5" style="stroke:#181818;stroke-width:0.5;" width="71" x="334.5" y="5"/><text fill="#000000" font-family="sans-serif" font-size="14" lengthAdjust="spacing" textLength="57" x="341.5" y="24.9951">Retailer</text><rect fill="#E2E2F0" height="30.2969" rx="2.5" ry="2.5" style="stroke:#181818;stroke-width:0.5;" width="71" x="334.5" y="406.625"/><text fill="#000000" font-family="sans-serif" font-size="14" lengthAdjust="spacing" textLength="57" x="341.5" y="426.6201">Retailer</text><rect fill="#E2E2F0" height="30.2969" rx="2.5" ry="2.5" style="stroke:#181818;stroke-width:0.5;" width="86" x="459" y="5"/><text fill="#000000" font-family="sans-serif" font-size="14" lengthAdjust="spacing" textLength="72" x="466" y="24.9951">Consumer</text><rect fill="#E2E2F0" height="30.2969" rx="2.5" ry="2.5" style="stroke:#181818;stroke-width:0.5;" width="86" x="459" y="406.625"/><text fill="#000000" font-family="sans-serif" font-size="14" lengthAdjust="spacing" textLength="72" x="466" y="426.6201">Consumer</text><rect fill="#FFFFFF" height="352.3281" style="stroke:#181818;stroke-width:1.0;" width="10" x="53" y="46.2969"/><rect fill="#FFFFFF" height="234.7969" style="stroke:#181818;stroke-width:1.0;" width="10" x="176" y="67.4297"/><rect fill="#FFFFFF" height="59.1328" style="stroke:#181818;stroke-width:1.0;" width="10" x="273" y="154.8281"/><rect fill="#FFFFFF" height="147.3984" style="stroke:#181818;stroke-width:1.0;" width="10" x="365" y="183.9609"/><rect fill="#FFFFFF" height="59.1328" style="stroke:#181818;stroke-width:1.0;" width="10" x="497" y="272.2266"/><polygon fill="#181818" points="74,63.4297,64,67.4297,74,71.4297,70,67.4297" style="stroke:#181818;stroke-width:1.0;"/><line style="stroke:#181818;stroke-width:1.0;" x1="68" x2="175" y1="67.4297" y2="67.4297"/><text fill="#000000" font-family="sans-serif" font-size="13" lengthAdjust="spacing" textLength="88" x="80" y="62.3638">harvestItem()</text><polygon fill="#181818" points="74,92.5625,64,96.5625,74,100.5625,70,96.5625" style="stroke:#181818;stroke-width:1.0;"/><line style="stroke:#181818;stroke-width:1.0;" x1="68" x2="175" y1="96.5625" y2="96.5625"/><text fill="#000000" font-family="sans-serif" font-size="13" lengthAdjust="spacing" textLength="89" x="80" y="91.4966">processItem()</text><polygon fill="#181818" points="74,121.6953,64,125.6953,74,129.6953,70,125.6953" style="stroke:#181818;stroke-width:1.0;"/><line style="stroke:#181818;stroke-width:1.0;" x1="68" x2="175" y1="125.6953" y2="125.6953"/><text fill="#000000" font-family="sans-serif" font-size="13" lengthAdjust="spacing" textLength="69" x="80" y="120.6294">packItem()</text><polygon fill="#181818" points="74,150.8281,64,154.8281,74,158.8281,70,154.8281" style="stroke:#181818;stroke-width:1.0;"/><line style="stroke:#181818;stroke-width:1.0;" x1="68" x2="175" y1="154.8281" y2="154.8281"/><text fill="#000000" font-family="sans-serif" font-size="13" lengthAdjust="spacing" textLength="65" x="80" y="149.7622">selltItem()</text><polygon fill="#181818" points="197,179.9609,187,183.9609,197,187.9609,193,183.9609" style="stroke:#181818;stroke-width:1.0;"/><line style="stroke:#181818;stroke-width:1.0;" x1="191" x2="272" y1="183.9609" y2="183.9609"/><text fill="#000000" font-family="sans-serif" font-size="13" lengthAdjust="spacing" textLength="63" x="203" y="178.895">buyItem()</text><polygon fill="#181818" points="353,239.0938,363,243.0938,353,247.0938,357,243.0938" style="stroke:#181818;stroke-width:1.0;"/><line style="stroke:#181818;stroke-width:1.0;" x1="186" x2="359" y1="243.0938" y2="243.0938"/><text fill="#000000" font-family="sans-serif" font-size="13" lengthAdjust="spacing" textLength="65" x="193" y="238.0278">shipItem()</text><polygon fill="#181818" points="197,268.2266,187,272.2266,197,276.2266,193,272.2266" style="stroke:#181818;stroke-width:1.0;"/><line style="stroke:#181818;stroke-width:1.0;" x1="191" x2="364" y1="272.2266" y2="272.2266"/><text fill="#000000" font-family="sans-serif" font-size="13" lengthAdjust="spacing" textLength="86" x="203" y="267.1606">receiveItem()</text><polygon fill="#181818" points="381,327.3594,371,331.3594,381,335.3594,377,331.3594" style="stroke:#181818;stroke-width:1.0;"/><line style="stroke:#181818;stroke-width:1.0;" x1="375" x2="501" y1="331.3594" y2="331.3594"/><text fill="#000000" font-family="sans-serif" font-size="13" lengthAdjust="spacing" textLength="98" x="387" y="326.2935">purchaseItem()</text><polygon fill="#181818" points="490,356.4922,500,360.4922,490,364.4922,494,360.4922" style="stroke:#181818;stroke-width:1.0;"/><line style="stroke:#181818;stroke-width:1.0;" x1="63" x2="496" y1="360.4922" y2="360.4922"/><text fill="#000000" font-family="sans-serif" font-size="13" lengthAdjust="spacing" textLength="143" x="70" y="355.4263">fetchItem() buffer one</text><polygon fill="#181818" points="490,385.625,500,389.625,490,393.625,494,389.625" style="stroke:#181818;stroke-width:1.0;"/><line style="stroke:#181818;stroke-width:1.0;" x1="63" x2="496" y1="389.625" y2="389.625"/><text fill="#000000" font-family="sans-serif" font-size="13" lengthAdjust="spacing" textLength="143" x="70" y="384.5591">fetchItem() buffer two</text><!--SRC=[TP4nRiCm34LtdO9ZC-W2GU6XAGfqxGqeceA5EfP0qWvo-yYDazekklxt_gS05HHBb0eE1gSS8_CRuw202i6L5Vn0ERFCUTpaxqbDKXWj_y1s0x_OCFNtccp8AGywBeFaa2nDQ5nl1dZr48_GeKoizcbyVZdy2l4f5Cd4gelmJ96-Tv5ot__PQLqBlfbn6AzxAAxbbHbdK-fGbygYYczgLPWuJRolqxeU7VccbiierA4-v9MnkKOk-8QE4DcekxlrXVLV1FB0_qExv1i0]--></g></svg>