<?xml version="1.0" encoding="UTF-8" standalone="no"?><svg xmlns="http://www.w3.org/2000/svg" xmlns:xlink="http://www.w3.org/1999/xlink" contentStyleType="text/css" height="961px" preserveAspectRatio="none" style="width:310px;height:961px;background:#FFFFFF;" version="1.1" viewBox="0 0 310 961" width="310px" zoomAndPan="magnify"><defs/><g><path d="M19.5,7 L284,7 A12.5,12.5 0 0 1 296.5,19.5 L296.5,33.2969 L7,33.2969 L7,19.5 A12.5,12.5 0 0 1 19.5,7 " fill="#F1F1F1" style="stroke:#F1F1F1;stroke-width:1.0;"/><rect fill="none" height="948.2969" rx="12.5" ry="12.5" style="stroke:#181818;stroke-width:0.5;" width="289.5" x="7" y="7"/><line style="stroke:#181818;stroke-width:0.5;" x1="7" x2="296.5" y1="33.2969" y2="33.2969"/><text fill="#000000" font-family="sans-serif" font-size="14" lengthAdjust="spacing" textLength="49" x="127.25" y="24.9951">Coffee</text><ellipse cx="65.5" cy="54.2969" fill="#222222" rx="10" ry="10" style="stroke:none;stroke-width:1.0;"/><g id="Coffee.Harvested"><rect fill="#F1F1F1" height="50" rx="12.5" ry="12.5" style="stroke:#181818;stroke-width:0.5;" width="93" x="19" y="117.2969"/><line style="stroke:#181818;stroke-width:0.5;" x1="19" x2="112" y1="143.5938" y2="143.5938"/><text fill="#000000" font-family="sans-serif" font-size="14" lengthAdjust="spacing" textLength="73" x="29" y="135.292">Harvested</text></g><g id="Coffee.Processed"><rect fill="#F1F1F1" height="50" rx="12.5" ry="12.5" style="stroke:#181818;stroke-width:0.5;" width="93" x="19" y="220.2969"/><line style="stroke:#181818;stroke-width:0.5;" x1="19" x2="112" y1="246.5938" y2="246.5938"/><text fill="#000000" font-family="sans-serif" font-size="14" lengthAdjust="spacing" textLength="73" x="29" y="238.292">Processed</text></g><g id="Coffee.Packed"><rect fill="#F1F1F1" height="50" rx="12.5" ry="12.5" style="stroke:#181818;stroke-width:0.5;" width="72" x="29.5" y="323.2969"/><line style="stroke:#181818;stroke-width:0.5;" x1="29.5" x2="101.5" y1="349.5938" y2="349.5938"/><text fill="#000000" font-family="sans-serif" font-size="14" lengthAdjust="spacing" textLength="52" x="39.5" y="341.292">Packed</text></g><g id="Coffee.ForSale"><rect fill="#F1F1F1" height="50" rx="12.5" ry="12.5" style="stroke:#181818;stroke-width:0.5;" width="73" x="29" y="426.2969"/><line style="stroke:#181818;stroke-width:0.5;" x1="29" x2="102" y1="452.5938" y2="452.5938"/><text fill="#000000" font-family="sans-serif" font-size="14" lengthAdjust="spacing" textLength="53" x="39" y="444.292">ForSale</text></g><g id="Coffee.Sold"><rect fill="#F1F1F1" height="50" rx="12.5" ry="12.5" style="stroke:#181818;stroke-width:0.5;" width="51" x="40" y="529.2969"/><line style="stroke:#181818;stroke-width:0.5;" x1="40" x2="91" y1="555.5938" y2="555.5938"/><text fill="#000000" font-family="sans-serif" font-size="14" lengthAdjust="spacing" textLength="31" x="50" y="547.292">Sold</text></g><g id="Coffee.Shipped"><rect fill="#F1F1F1" height="50" rx="12.5" ry="12.5" style="stroke:#181818;stroke-width:0.5;" width="80" x="25.5" y="632.2969"/><line style="stroke:#181818;stroke-width:0.5;" x1="25.5" x2="105.5" y1="658.5938" y2="658.5938"/><text fill="#000000" font-family="sans-serif" font-size="14" lengthAdjust="spacing" textLength="60" x="35.5" y="650.292">Shipped</text></g><g id="Coffee.Received"><rect fill="#F1F1F1" height="50" rx="12.5" ry="12.5" style="stroke:#181818;stroke-width:0.5;" width="86" x="22.5" y="735.2969"/><line style="stroke:#181818;stroke-width:0.5;" x1="22.5" x2="108.5" y1="761.5938" y2="761.5938"/><text fill="#000000" font-family="sans-serif" font-size="14" lengthAdjust="spacing" textLength="66" x="32.5" y="753.292">Received</text></g><g id="Coffee.Purchased"><rect fill="#F1F1F1" height="50" rx="12.5" ry="12.5" style="stroke:#181818;stroke-width:0.5;" width="93" x="19" y="838.2969"/><line style="stroke:#181818;stroke-width:0.5;" x1="19" x2="112" y1="864.5938" y2="864.5938"/><text fill="#000000" font-family="sans-serif" font-size="14" lengthAdjust="spacing" textLength="73" x="29" y="856.292">Purchased</text></g><ellipse cx="65.5" cy="935.2969" fill="none" rx="10" ry="10" style="stroke:#222222;stroke-width:1.0;"/><ellipse cx="66" cy="935.7969" fill="#222222" rx="6" ry="6" style="stroke:none;stroke-width:1.0;"/><!--link *start*Coffee to Harvested--><g id="link_*start*Coffee_Harvested"><path d="M65.5,64.5009 C65.5,75.8099 65.5,95.5459 65.5,112.1779 " fill="none" id="*start*Coffee-to-Harvested" style="stroke:#181818;stroke-width:1.0;"/><polygon fill="#181818" points="65.5,117.2269,69.5,108.2269,65.5,112.2269,61.5,108.2269,65.5,117.2269" style="stroke:#181818;stroke-width:1.0;"/><text fill="#000000" font-family="sans-serif" font-size="13" lengthAdjust="spacing" textLength="114" x="66.5" y="95.3638">isFarmer, Harvest</text></g><!--link Harvested to Processed--><g id="link_Harvested_Processed"><path d="M65.5,167.4889 C65.5,181.6269 65.5,199.5809 65.5,214.5749 " fill="none" id="Harvested-to-Processed" style="stroke:#181818;stroke-width:1.0;"/><polygon fill="#181818" points="65.5,219.9519,69.5,210.9519,65.5,214.9519,61.5,210.9519,65.5,219.9519" style="stroke:#181818;stroke-width:1.0;"/><text fill="#000000" font-family="sans-serif" font-size="13" lengthAdjust="spacing" textLength="198" x="66.5" y="198.3638">isFarmer, isHarvested, Process</text></g><!--link Processed to Packed--><g id="link_Processed_Packed"><path d="M65.5,270.4889 C65.5,284.6269 65.5,302.5809 65.5,317.5749 " fill="none" id="Processed-to-Packed" style="stroke:#181818;stroke-width:1.0;"/><polygon fill="#181818" points="65.5,322.9519,69.5,313.9519,65.5,317.9519,61.5,313.9519,65.5,322.9519" style="stroke:#181818;stroke-width:1.0;"/><text fill="#000000" font-family="sans-serif" font-size="13" lengthAdjust="spacing" textLength="178" x="66.5" y="301.3638">isFarmer, isProcessed, Pack</text></g><!--link Packed to ForSale--><g id="link_Packed_ForSale"><path d="M65.5,373.4889 C65.5,387.6269 65.5,405.5809 65.5,420.5749 " fill="none" id="Packed-to-ForSale" style="stroke:#181818;stroke-width:1.0;"/><polygon fill="#181818" points="65.5,425.9519,69.5,416.9519,65.5,420.9519,61.5,416.9519,65.5,425.9519" style="stroke:#181818;stroke-width:1.0;"/><text fill="#000000" font-family="sans-serif" font-size="13" lengthAdjust="spacing" textLength="150" x="66.5" y="404.3638">isFarmer, isPacked, Sell</text></g><!--link ForSale to Sold--><g id="link_ForSale_Sold"><path d="M65.5,476.4889 C65.5,490.6269 65.5,508.5809 65.5,523.5749 " fill="none" id="ForSale-to-Sold" style="stroke:#181818;stroke-width:1.0;"/><polygon fill="#181818" points="65.5,528.9519,69.5,519.9519,65.5,523.9519,61.5,519.9519,65.5,528.9519" style="stroke:#181818;stroke-width:1.0;"/><text fill="#000000" font-family="sans-serif" font-size="13" lengthAdjust="spacing" textLength="174" x="66.5" y="507.3638">isDistributor, isForSale, Buy</text></g><!--link Sold to Shipped--><g id="link_Sold_Shipped"><path d="M65.5,579.4889 C65.5,593.6269 65.5,611.5809 65.5,626.5749 " fill="none" id="Sold-to-Shipped" style="stroke:#181818;stroke-width:1.0;"/><polygon fill="#181818" points="65.5,631.9519,69.5,622.9519,65.5,626.9519,61.5,622.9519,65.5,631.9519" style="stroke:#181818;stroke-width:1.0;"/><text fill="#000000" font-family="sans-serif" font-size="13" lengthAdjust="spacing" textLength="136" x="66.5" y="610.3638">isFarmer, isSold, Ship</text></g><!--link Shipped to Received--><g id="link_Shipped_Received"><path d="M65.5,682.4889 C65.5,696.6269 65.5,714.5809 65.5,729.5749 " fill="none" id="Shipped-to-Received" style="stroke:#181818;stroke-width:1.0;"/><polygon fill="#181818" points="65.5,734.9519,69.5,725.9519,65.5,729.9519,61.5,725.9519,65.5,734.9519" style="stroke:#181818;stroke-width:1.0;"/><text fill="#000000" font-family="sans-serif" font-size="13" lengthAdjust="spacing" textLength="187" x="66.5" y="713.3638">isRetailer, isShipped, Receive</text></g><!--link Received to Purchased--><g id="link_Received_Purchased"><path d="M65.5,785.4889 C65.5,799.6269 65.5,817.5809 65.5,832.5749 " fill="none" id="Received-to-Purchased" style="stroke:#181818;stroke-width:1.0;"/><polygon fill="#181818" points="65.5,837.9519,69.5,828.9519,65.5,832.9519,61.5,828.9519,65.5,837.9519" style="stroke:#181818;stroke-width:1.0;"/><text fill="#000000" font-family="sans-serif" font-size="13" lengthAdjust="spacing" textLength="220" x="66.5" y="816.3638">isConsumer, isRecieved, Purchase</text></g><!--link Purchased to *end*Coffee--><g id="link_Purchased_*end*Coffee"><path d="M65.5,888.3869 C65.5,898.8671 65.5,910.7974 65.5,919.8691 " fill="none" id="Purchased-to-*end*Coffee" style="stroke:#181818;stroke-width:1.0;"/><polygon fill="#181818" points="65.5,925.1097,69.5,916.1097,65.5,920.1097,61.5,916.1097,65.5,925.1097" style="stroke:#181818;stroke-width:1.0;"/></g><!--SRC=[NT6z3e8m4C3ndQUusTGNS70GOnmDZCQXmX4RAoNzm1ZZkulNzeXqfBz_snpEIuzGcgv3X7S1qpglBh1kpRDVRm6EqexeFBORKEuWxGEjo1z9C-3cP4s3plqdoZ4KML3FUkvbSr_6h0Hjnv8SPmTZQwbnqP4HKAFM52N5LMqqNRLNpbjr3TvGbvY0NNXHztDpT5F3i7pYJmZQYa4qt5JOe1fZLA6NIgSiEf41nHdFCmcskSaqqzBqBgHR9wbmfBaa4cUJFPym_TNYymK0]--></g></svg>